<svg width="159" height="27" viewBox="0 0 159 27" fill="none" xmlns="http://www.w3.org/2000/svg">
<g clip-path="url(#clip0_1080_1684)">
<path d="M19.7335 19.8966C16.1043 23.3844 10.2635 23.3844 6.63423 19.8966C3.00499 16.4087 3.00499 10.7955 6.63423 7.30771C7.82508 6.16327 9.29946 5.40031 10.8305 5.01883V1.14954C8.27873 1.58551 5.84034 2.72995 3.8556 4.63735C-1.30473 9.59659 -1.30473 17.6077 3.8556 22.5669C9.01592 27.5262 17.3518 27.5262 22.5122 22.5669C24.4969 20.6595 25.7445 18.2616 26.1414 15.8093H22.1152C21.775 17.3352 20.9811 18.7521 19.7335 19.8966Z" fill="#00ADEE"/>
<path d="M21.264 9.26958C22.0579 10.5775 22.4549 12.1034 22.4549 13.5749H26.3676C26.3676 10.3595 25.0634 7.14419 22.5116 4.69182C19.9598 2.18495 16.5573 0.931519 13.2116 0.931519V4.69182C14.7994 4.69182 16.3305 5.0733 17.7482 5.83626L10.9434 12.3759V15.6457H14.5726L21.264 9.26958Z" fill="white"/>
<g opacity="0.25">
<path d="M21.152 19.1336C20.8685 19.515 20.5282 19.951 20.1313 20.278C18.2599 22.0764 15.8215 23.0574 13.1563 23.0574C10.5478 23.0574 8.0527 22.0764 6.18138 20.278C2.43872 16.6267 2.43872 10.632 6.23808 6.9262C6.69174 6.49023 7.2021 6.10875 7.76917 5.72727C6.91856 5.61827 6.12467 5.50928 5.21736 5.50928C4.707 5.50928 4.19663 5.50928 3.68627 5.56377C-0.623451 10.305 -0.45333 17.6076 4.25334 22.1309C6.63503 24.4198 9.81062 25.6732 13.1563 25.6732C16.0484 25.6732 18.827 24.7468 21.0953 23.0029C21.2087 22.2944 21.2654 21.5859 21.2654 20.8775C21.2654 20.3325 21.2087 19.733 21.152 19.1336Z" fill="url(#paint0_linear_1080_1684)"/>
</g>
<path d="M59.2009 9.43302L58.8607 10.523L58.3503 9.48752L56.0253 4.69177H53.19L51.7156 9.9235L50.2412 15.2642H53.2467L54.7778 9.70551L54.9479 9.16054L55.2314 9.70551L57.9533 15.2642H60.6186L62.2631 9.26953L63.5673 4.69177H60.5052L59.2009 9.43302Z" fill="white"/>
<path d="M106.779 4.69177H97.1386L96.4014 7.25314H99.7471L99.3501 8.50657L97.4788 15.2642H100.541L102.412 8.50657L102.753 7.25314H106.098L106.779 4.69177Z" fill="white"/>
<path d="M110.748 4.69177H107.686L106.609 8.56107L104.737 15.2642H107.799L109.614 8.61557L110.748 4.69177Z" fill="white"/>
<path d="M131.673 4.69177H122.09H122.033H119.084L117.893 8.83355L117.383 10.523L116.533 8.77906L114.548 4.69177H111.712L110.578 8.61557L108.764 15.2642H111.769L113.47 9.16054L116.476 15.2642H119.141L120.899 8.94255L121.353 7.25314H124.585L124.075 9.10604L122.373 15.2642H125.435L127.08 9.21503L127.647 7.25314H130.936L131.673 4.69177Z" fill="white"/>
<path d="M135.699 4.69177H132.637L131.333 9.43302L129.688 15.2642H132.751L134.282 9.65101L135.699 4.69177Z" fill="white"/>
<path d="M144.149 4.69177L142.561 10.305L142.504 10.523L142.391 10.2505L139.669 4.69177H136.777L135.416 9.70551L133.828 15.2642H136.89L138.365 9.9235L138.591 9.16054L138.988 9.97799L141.54 15.2642H144.205L145.51 10.5775L147.211 4.69177H144.149Z" fill="white"/>
<path d="M152.145 11.2315H154.243L154.073 11.722L153.79 12.703C153.619 12.812 153.393 12.8665 153.166 12.9209C152.939 12.9754 152.655 13.0299 152.372 13.0299C152.032 13.0299 151.691 12.9754 151.408 12.8665C151.124 12.7575 150.841 12.6485 150.614 12.4305C150.387 12.267 150.217 11.9945 150.047 11.722C149.99 11.5585 149.933 11.3405 149.877 11.1225C149.877 11.0135 149.82 10.8501 149.82 10.7411C149.82 10.2506 149.933 9.81461 150.104 9.37863C150.274 8.94266 150.557 8.56118 150.897 8.23419C151.238 7.90721 151.635 7.63473 152.088 7.47123C152.542 7.25325 153.052 7.19875 153.619 7.19875C154.243 7.19875 154.754 7.30774 155.207 7.52573C155.661 7.74372 156.058 8.01621 156.341 8.28869L158.383 6.38129C158.213 6.1633 157.929 5.94531 157.646 5.72733C157.362 5.50934 157.022 5.29135 156.625 5.12786C156.228 4.96437 155.831 4.85537 155.321 4.74638C154.867 4.63738 154.357 4.58289 153.79 4.58289C152.712 4.58289 151.805 4.74638 150.897 5.07336C150.047 5.40034 149.31 5.89082 148.686 6.49029C148.062 7.08975 147.552 7.74372 147.212 8.50668C146.871 9.26964 146.701 10.0326 146.701 10.8501V10.9046C146.701 11.722 146.871 12.4305 147.155 13.0299C147.438 13.6294 147.892 14.1199 148.346 14.5014C148.856 14.8828 149.423 15.1553 150.047 15.3733C150.671 15.5368 151.351 15.6458 151.975 15.6458C152.769 15.6458 153.563 15.5368 154.243 15.3188C154.924 15.1008 155.547 14.8828 156.115 14.5559L156.795 12.3215L157.702 9.21514H152.655L152.145 11.2315Z" fill="white"/>
<path d="M49.732 11.068L50.0155 10.0871L50.3558 8.77915H45.082L45.5357 7.19873H51.3198L52.0003 4.69187H43.2674L42.7571 6.49027C42.4168 5.9998 42.0199 5.56382 41.4528 5.18234C40.7156 4.69187 39.7516 4.47388 38.6175 4.47388C37.54 4.47388 36.576 4.63737 35.7254 5.01885C34.8748 5.40033 34.1376 5.8908 33.5705 6.49027C33.0035 7.08974 32.4931 7.74371 32.2096 8.50667C31.8693 9.26963 31.6992 10.0326 31.6992 10.85C31.6992 11.4495 31.8126 11.94 31.9828 12.4305C32.0395 12.5395 32.0395 12.6484 32.0962 12.7574C32.3797 13.3024 32.7199 13.7929 33.1736 14.2289C33.6273 14.6103 34.1943 14.9373 34.8181 15.1553C35.4419 15.3733 36.1791 15.4823 36.9162 15.4823C37.9937 15.4823 38.8443 15.3188 39.5815 14.9373C39.9217 14.7738 40.2052 14.6103 40.4888 14.3924L40.262 15.2643H49.1649L49.8454 12.7574H44.0046L44.4583 11.068H49.732ZM40.9424 12.9209L39.5248 11.722C39.1845 12.049 38.7876 12.3215 38.4473 12.5395C38.1071 12.7029 37.6534 12.8119 37.1998 12.8119C36.576 12.8119 36.0089 12.594 35.612 12.2125C35.4986 12.1035 35.3852 11.94 35.2718 11.7765C35.1016 11.4495 34.9882 11.068 34.9882 10.5776C34.9882 10.1416 35.1016 9.65111 35.2718 9.26963C35.4419 8.83365 35.6687 8.50667 35.9522 8.17968C36.2358 7.8527 36.576 7.58021 36.973 7.41672C37.3699 7.19873 37.8236 7.14424 38.2772 7.14424C38.8443 7.14424 39.2979 7.25323 39.6382 7.52572C39.9784 7.74371 40.262 8.07069 40.4888 8.50667L42.5302 7.47122L41.5662 10.959L40.9424 12.9209Z" fill="white"/>
<path d="M90.4473 8.50661L91.5248 4.69181H88.4626L87.3852 8.56111L85.7974 14.2833L84.8333 8.56111L84.2096 4.58282H81.2041L78.2553 8.6701L74.9096 13.3024L73.0383 11.7219C72.6981 12.0489 72.3011 12.3214 71.9609 12.5394C71.6206 12.7029 71.167 12.8119 70.7133 12.8119C70.0896 12.8119 69.5225 12.5939 69.1255 12.2124C68.7286 11.8309 68.5018 11.286 68.5018 10.632C68.5018 10.196 68.6152 9.70555 68.7853 9.32407C68.842 9.21507 68.8987 9.10608 68.9554 8.99709C69.1255 8.7246 69.2957 8.45211 69.4658 8.23413C69.7493 7.90714 70.0896 7.63466 70.4865 7.47117C70.8835 7.25318 71.3371 7.19868 71.7908 7.19868C72.3578 7.19868 72.8115 7.30767 73.1517 7.58016C73.492 7.79815 73.7755 8.12513 74.0023 8.56111L76.6675 7.19868C76.3273 6.38122 75.7602 5.72726 75.0231 5.23678C74.2859 4.74631 73.3218 4.52832 72.1877 4.52832C71.1103 4.52832 70.1463 4.69181 69.3524 5.07329C68.5018 5.45477 67.7646 5.94525 67.1975 6.54471C66.6304 7.14418 66.1201 7.79815 65.8365 8.56111C65.7231 8.7791 65.6664 8.94259 65.6097 9.16058C65.4396 9.70555 65.3262 10.305 65.3262 10.9045C65.3262 11.6129 65.4396 12.2669 65.7231 12.8119C65.95 13.3569 66.3469 13.8473 66.8006 14.2833C67.2542 14.6648 67.8213 14.9918 68.4451 15.2098C69.0688 15.4277 69.7493 15.5367 70.5432 15.5367C71.6206 15.5367 72.4712 15.3732 73.2084 14.9918C73.5487 14.8283 73.8889 14.6103 74.2292 14.3923L73.5487 15.3188H76.8377L78.1419 13.4114H82.3949L82.6785 15.3188H85.4571H85.9108H93.793L94.5302 12.7574H89.2565L90.4473 8.50661ZM79.7297 11.068L81.4309 8.61561L81.8279 8.07063L81.8846 8.61561L82.2248 11.1225H79.7297V11.068Z" fill="white"/>
<path d="M38.7315 20.6596H37.8809L38.051 20.0056H40.4894L40.3193 20.6596H39.4686L38.9016 22.676H38.1077L38.7315 20.6596Z" fill="#00ADEE"/>
<path d="M41.7363 20.0056H42.5302L41.7363 22.7305H40.9424L41.7363 20.0056Z" fill="#00ADEE"/>
<path d="M43.8916 20.0056H44.6287L45.3659 21.477L45.7629 20.0056H46.5001L45.7629 22.7305H45.0824L44.3452 21.2046L43.8916 22.7305H43.0977L43.8916 20.0056Z" fill="#00ADEE"/>
<path d="M48.3145 20.6596H47.4639L47.634 20.0056H50.0724L49.9023 20.6596H49.0517L48.4846 22.676H47.6907L48.3145 20.6596Z" fill="#00ADEE"/>
<path d="M52.9084 21.2045H54.2127L54.0425 21.8584H52.7383L52.9084 21.2045Z" fill="white"/>
<path d="M57.8408 20.0056H58.7481C58.9749 20.0056 59.145 20.0056 59.3152 20.0601C59.4853 20.1146 59.5987 20.1691 59.7121 20.2781C59.8822 20.4416 59.9389 20.6051 59.9389 20.8231C59.9389 20.9866 59.8822 21.1501 59.8255 21.259C59.7688 21.368 59.6554 21.5315 59.542 21.586C59.4286 21.695 59.2584 21.7495 59.0883 21.804C58.9182 21.8585 58.7481 21.8585 58.5213 21.8585H58.0676L57.8408 22.7305H57.0469L57.8408 20.0056ZM58.5213 21.368C58.6914 21.368 58.8615 21.3135 58.9749 21.259C59.0883 21.2046 59.145 21.0956 59.145 20.9321C59.145 20.8776 59.145 20.8231 59.0883 20.7686C59.0316 20.7141 58.9182 20.6596 58.7481 20.6596H58.4078L58.2377 21.368H58.5213Z" fill="#00ADEE"/>
<path d="M61.3574 20.0056H62.2647C62.4915 20.0056 62.6616 20.0056 62.8318 20.0601C63.0019 20.1146 63.1153 20.1691 63.2287 20.2781C63.3988 20.4416 63.4555 20.6051 63.4555 20.8231C63.4555 20.9866 63.3988 21.1501 63.3421 21.259C63.2854 21.368 63.172 21.5315 63.0586 21.586C62.9452 21.695 62.775 21.7495 62.6049 21.804C62.4348 21.8585 62.2647 21.8585 62.0379 21.8585H61.5842L61.3574 22.6215H60.5635L61.3574 20.0056ZM62.0379 21.368C62.208 21.368 62.3781 21.3135 62.4915 21.259C62.6049 21.2046 62.6616 21.0956 62.6616 20.9321C62.6616 20.8776 62.6616 20.8231 62.6049 20.7686C62.5482 20.7141 62.4348 20.6596 62.2647 20.6596H61.9811L61.811 21.368H62.0379Z" fill="#00ADEE"/>
<path d="M64.9306 20.0056H67.1422L66.9721 20.6596H65.4977L65.3843 21.0956H66.6885L66.5184 21.695H65.2142L64.9306 22.676H64.1367L64.9306 20.0056Z" fill="#00ADEE"/>
<path d="M69.9768 21.2045H71.281L71.1109 21.8584H69.8066L69.9768 21.2045Z" fill="white"/>
<path d="M75.7037 22.7849C75.5336 22.7849 75.3067 22.7304 75.1933 22.6759C75.0232 22.6214 74.9098 22.5669 74.7964 22.4579C74.6829 22.3489 74.5695 22.2399 74.5128 22.0764C74.4561 21.9129 74.3994 21.7495 74.3994 21.586C74.3994 21.368 74.4561 21.2045 74.5128 20.9865C74.5695 20.7685 74.683 20.605 74.8531 20.496C75.0232 20.3325 75.1933 20.2235 75.4201 20.1145C75.647 20.0055 75.8738 19.951 76.1573 19.951C76.4409 19.951 76.6677 20.0055 76.8945 20.1145C77.0646 20.2235 77.2348 20.387 77.2915 20.605L76.611 20.932C76.5543 20.823 76.4976 20.714 76.3842 20.6595C76.2707 20.605 76.1573 20.5505 76.0439 20.5505C75.9305 20.5505 75.8171 20.5505 75.7037 20.605C75.5903 20.6595 75.5336 20.714 75.4201 20.823C75.3634 20.932 75.3067 20.9865 75.25 21.0955C75.1933 21.2045 75.1933 21.3135 75.1933 21.4225C75.1933 21.586 75.25 21.7495 75.3634 21.804C75.4768 21.9129 75.5903 21.9674 75.7604 21.9674C75.8738 21.9674 75.9872 21.9674 76.1006 21.9129C76.214 21.8584 76.2707 21.804 76.3842 21.695L76.8945 22.1309C76.7811 22.2944 76.611 22.4034 76.3842 22.5124C76.214 22.7304 75.9872 22.7849 75.7037 22.7849Z" fill="#00ADEE"/>
<path d="M79.5035 22.785C79.2767 22.785 79.1066 22.7305 78.9365 22.676C78.7664 22.6215 78.6529 22.5125 78.5395 22.4035C78.4261 22.2945 78.3127 22.1855 78.256 22.022C78.1993 21.8585 78.1426 21.695 78.1426 21.5315C78.1426 21.3135 78.1993 21.1501 78.256 20.9321C78.3127 20.7141 78.4261 20.5506 78.5962 20.4416C78.7664 20.2781 78.9365 20.1691 79.1066 20.1146C79.3334 20.0056 79.5602 20.0056 79.7871 20.0056C80.0139 20.0056 80.184 20.0601 80.3541 20.1146C80.5243 20.1691 80.6377 20.2781 80.7511 20.3871C80.8645 20.4961 80.9779 20.6051 81.0346 20.7686C81.0913 20.9321 81.148 21.0956 81.148 21.259C81.148 21.477 81.0913 21.6405 81.0346 21.8585C80.9779 22.022 80.8645 22.24 80.6944 22.349C80.5243 22.5125 80.3541 22.6215 80.184 22.676C79.9572 22.7305 79.7304 22.785 79.5035 22.785ZM79.5603 22.0765C79.6737 22.0765 79.7871 22.0765 79.9005 22.022C80.0139 21.9675 80.0706 21.913 80.1273 21.804C80.184 21.695 80.2407 21.6405 80.2974 21.5315C80.3541 21.4225 80.3541 21.3135 80.3541 21.2046C80.3541 21.0956 80.3541 21.0411 80.2974 20.9866C80.2974 20.9321 80.2407 20.8776 80.184 20.8231C80.1273 20.7686 80.0706 20.7141 80.0139 20.7141C79.9572 20.6596 79.8438 20.6596 79.7304 20.6596C79.617 20.6596 79.5035 20.6596 79.3901 20.7141C79.2767 20.7686 79.22 20.8231 79.1633 20.9321C79.1066 21.0411 79.0499 21.0956 78.9932 21.2046C78.9365 21.3135 78.9365 21.4225 78.9365 21.5315C78.9365 21.6405 78.9365 21.695 78.9932 21.7495C78.9932 21.804 79.0499 21.8585 79.1066 21.913C79.1633 21.9675 79.22 22.022 79.2767 22.022C79.3901 22.0765 79.5035 22.0765 79.5603 22.0765Z" fill="#00ADEE"/>
<path d="M83.7562 20.0056H84.4933L84.947 22.7305H84.1531L84.0964 22.24H83.019L82.6787 22.7305H81.8281L83.7562 20.0056ZM83.983 21.6405L83.8696 20.8776L83.3592 21.6405H83.983Z" fill="#00ADEE"/>
<path d="M87.2158 20.6596H86.3652L86.5354 20.0056H88.9737L88.8036 20.6596H87.953L87.386 22.676H86.5921L87.2158 20.6596Z" fill="#00ADEE"/>
<path d="M90.2216 20.0056H91.0155L90.2783 22.676H89.4844L90.2216 20.0056Z" fill="#00ADEE"/>
<path d="M92.3759 20.0056H93.1131L93.8503 21.477L94.2473 20.0056H95.0412L94.304 22.676H93.5668L92.8296 21.1501L92.3759 22.676H91.582L92.3759 20.0056Z" fill="#00ADEE"/>
<path d="M97.1959 22.7849C97.0258 22.7849 96.8557 22.7849 96.6856 22.7304C96.5154 22.6759 96.402 22.6214 96.2319 22.5124C96.1185 22.4034 96.0051 22.2944 95.9484 22.131C95.8917 21.9675 95.835 21.804 95.835 21.586C95.835 21.368 95.8917 21.15 95.9484 20.9865C96.0618 20.7685 96.1752 20.605 96.2886 20.496C96.4587 20.3325 96.6289 20.2236 96.8557 20.1691C97.0825 20.0601 97.3093 20.0601 97.5929 20.0601C97.7063 20.0601 97.8764 20.0601 97.9898 20.1146C98.1032 20.1146 98.2166 20.1691 98.3301 20.2236C98.4435 20.278 98.5002 20.3325 98.6136 20.387C98.6703 20.4415 98.727 20.496 98.7837 20.5505L98.2734 21.041C98.2167 20.9865 98.1032 20.8775 97.9898 20.823C97.8764 20.7685 97.763 20.7685 97.5929 20.7685C97.4795 20.7685 97.3093 20.7685 97.1959 20.823C97.0825 20.8775 96.9691 20.932 96.9124 21.041C96.8557 21.15 96.7423 21.2045 96.7423 21.3135C96.6856 21.4225 96.6856 21.5315 96.6856 21.6405C96.6856 21.7495 96.6856 21.804 96.7423 21.913C96.799 21.9675 96.799 22.022 96.8557 22.0765C96.9124 22.131 96.9691 22.1854 97.0825 22.1854C97.1392 22.1854 97.2526 22.2399 97.3093 22.2399C97.3661 22.2399 97.4795 22.2399 97.5362 22.2399C97.5929 22.2399 97.6496 22.1854 97.7063 22.1854L97.8197 21.804H97.2526L97.4228 21.259H98.727L98.3301 22.6214C98.2166 22.6759 98.0465 22.7849 97.8764 22.8394C97.5929 22.7304 97.4228 22.7849 97.1959 22.7849Z" fill="#00ADEE"/>
<path d="M100.768 22.7849C100.485 22.7849 100.258 22.7304 100.031 22.6759C99.8041 22.5669 99.634 22.4579 99.4639 22.2944L99.9742 21.804C100.258 22.022 100.541 22.1854 100.825 22.1854C100.938 22.1854 100.995 22.1854 101.052 22.131C101.108 22.0765 101.165 22.022 101.165 21.9675V21.913L101.108 21.8585C101.052 21.8585 101.052 21.804 100.995 21.804C100.938 21.804 100.882 21.7495 100.768 21.695C100.655 21.6405 100.541 21.586 100.485 21.586C100.371 21.5315 100.314 21.477 100.258 21.4225C100.201 21.368 100.144 21.3135 100.088 21.2045C100.031 21.15 100.031 21.041 100.031 20.932C100.031 20.823 100.031 20.6595 100.144 20.5505C100.201 20.4415 100.258 20.3325 100.371 20.278C100.485 20.2236 100.598 20.1146 100.768 20.1146C100.938 20.0601 101.052 20.0601 101.222 20.0601C101.449 20.0601 101.675 20.1146 101.902 20.1691C102.072 20.2236 102.243 20.3325 102.413 20.4415L101.959 20.932C101.846 20.823 101.732 20.7685 101.619 20.714C101.505 20.6595 101.392 20.6595 101.222 20.6595C101.108 20.6595 101.052 20.6595 100.995 20.714C100.938 20.7685 100.938 20.823 100.938 20.823C100.938 20.8775 100.938 20.8775 100.938 20.8775L100.995 20.932C101.052 20.932 101.052 20.9865 101.108 20.9865C101.165 20.9865 101.222 21.041 101.335 21.0955C101.449 21.15 101.562 21.15 101.619 21.2045C101.732 21.259 101.789 21.3135 101.846 21.368C101.902 21.4225 101.959 21.477 102.016 21.586C102.072 21.6405 102.072 21.7495 102.072 21.8585C102.072 22.022 102.016 22.1309 101.959 22.2399C101.902 22.3489 101.846 22.4579 101.732 22.5124C101.619 22.5669 101.505 22.6759 101.335 22.6759C101.108 22.7304 100.938 22.7849 100.768 22.7849Z" fill="#00ADEE"/>
<path d="M105.306 21.2045H106.61L106.44 21.8584H105.136L105.306 21.2045Z" fill="white"/>
<path d="M110.012 20.0055H110.806L110.862 21.5315L111.826 19.951H112.507L112.62 21.5315L113.528 20.0055H114.378L112.677 22.7304H111.996L111.883 21.2045L110.919 22.7304H110.239L110.012 20.0055Z" fill="#00ADEE"/>
<path d="M115.513 20.0056H116.59C116.817 20.0056 117.044 20.0056 117.157 20.0601C117.327 20.1146 117.441 20.1691 117.554 20.2781C117.611 20.3326 117.667 20.4416 117.724 20.5506C117.781 20.6596 117.781 20.7686 117.781 20.8776C117.781 21.0956 117.724 21.3135 117.554 21.477C117.441 21.6405 117.214 21.7495 116.93 21.8585L117.384 22.785H116.533L116.136 21.9675H115.796L115.569 22.785H114.775L115.513 20.0056ZM116.363 21.3135C116.533 21.3135 116.703 21.259 116.76 21.2046C116.874 21.1501 116.93 21.0411 116.93 20.9321C116.93 20.8776 116.93 20.8231 116.874 20.7686C116.817 20.7141 116.703 20.6596 116.533 20.6596H116.136L115.966 21.3135H116.363Z" fill="#00ADEE"/>
<path d="M120.219 20.0056H120.956L121.41 22.7305H120.616L120.559 22.24H119.482L119.085 22.7305H118.234L120.219 20.0056ZM120.446 21.6405L120.333 20.8776L119.822 21.6405H120.446Z" fill="#00ADEE"/>
<path d="M123.224 20.0056H124.132C124.359 20.0056 124.529 20.0056 124.699 20.0601C124.869 20.1146 124.982 20.1691 125.096 20.2781C125.266 20.4416 125.323 20.6051 125.323 20.8231C125.323 20.9866 125.266 21.1501 125.209 21.259C125.153 21.368 125.039 21.5315 124.926 21.586C124.812 21.695 124.642 21.7495 124.472 21.804C124.302 21.8585 124.132 21.8585 123.905 21.8585H123.451L123.224 22.6215H122.487L123.224 20.0056ZM123.905 21.368C124.075 21.368 124.245 21.3135 124.359 21.259C124.472 21.2046 124.529 21.0956 124.529 20.9321C124.529 20.8776 124.529 20.8231 124.472 20.7686C124.415 20.7141 124.302 20.6596 124.132 20.6596H123.848L123.678 21.368H123.905Z" fill="#00ADEE"/>
<path d="M127.251 22.7849C126.967 22.7849 126.74 22.7304 126.513 22.6759C126.287 22.5669 126.116 22.4579 125.946 22.2944L126.457 21.804C126.74 22.022 127.024 22.1854 127.307 22.1854C127.421 22.1854 127.477 22.1854 127.534 22.131C127.591 22.0765 127.647 22.022 127.647 21.9675V21.913L127.591 21.8585C127.534 21.8585 127.534 21.804 127.477 21.804C127.421 21.804 127.364 21.7495 127.251 21.695C127.137 21.6405 127.024 21.586 126.967 21.586C126.854 21.5315 126.797 21.477 126.74 21.4225C126.683 21.368 126.627 21.3135 126.57 21.2045C126.513 21.15 126.513 21.041 126.513 20.932C126.513 20.823 126.57 20.6595 126.627 20.5505C126.683 20.4415 126.797 20.3325 126.854 20.278C126.967 20.2236 127.08 20.1146 127.251 20.1146C127.421 20.0601 127.534 20.0601 127.704 20.0601C127.931 20.0601 128.158 20.1146 128.385 20.1691C128.555 20.2236 128.725 20.3325 128.895 20.4415L128.441 20.932C128.328 20.823 128.215 20.7685 128.101 20.714C127.988 20.6595 127.874 20.6595 127.704 20.6595C127.591 20.6595 127.534 20.6595 127.477 20.714C127.421 20.7685 127.421 20.823 127.421 20.823C127.421 20.8775 127.421 20.8775 127.421 20.8775L127.477 20.932C127.534 20.932 127.534 20.9865 127.591 20.9865C127.647 20.9865 127.704 21.041 127.818 21.0955C127.931 21.15 128.044 21.15 128.101 21.2045C128.215 21.259 128.271 21.3135 128.328 21.368C128.385 21.4225 128.441 21.477 128.498 21.586C128.555 21.6405 128.555 21.7495 128.555 21.8585C128.555 22.022 128.498 22.1309 128.441 22.2399C128.385 22.3489 128.328 22.4579 128.215 22.5124C128.101 22.5669 127.988 22.6759 127.818 22.6759C127.591 22.7304 127.477 22.7849 127.251 22.7849Z" fill="#00ADEE"/>
<path d="M131.786 21.2045H133.091L132.92 21.8584H131.616L131.786 21.2045Z" fill="white"/>
<path d="M137.231 22.7849C136.947 22.7849 136.721 22.7304 136.494 22.6759C136.267 22.5669 136.097 22.4579 135.927 22.2944L136.437 21.804C136.721 22.022 137.004 22.1854 137.288 22.1854C137.401 22.1854 137.458 22.1854 137.515 22.131C137.571 22.0765 137.628 22.022 137.628 21.9675V21.913L137.571 21.8585C137.515 21.8585 137.515 21.804 137.458 21.804C137.401 21.804 137.344 21.7495 137.231 21.695C137.118 21.6405 137.004 21.586 136.947 21.586C136.834 21.5315 136.777 21.477 136.721 21.4225C136.664 21.368 136.607 21.3135 136.551 21.2045C136.494 21.15 136.494 21.041 136.494 20.932C136.494 20.823 136.551 20.6595 136.607 20.5505C136.664 20.4415 136.721 20.3325 136.834 20.278C136.947 20.2236 137.061 20.1146 137.231 20.1146C137.401 20.0601 137.515 20.0601 137.685 20.0601C137.912 20.0601 138.138 20.1146 138.365 20.1691C138.535 20.2236 138.705 20.3325 138.876 20.4415L138.422 20.932C138.308 20.823 138.195 20.7685 138.082 20.714C137.968 20.6595 137.855 20.6595 137.685 20.6595C137.571 20.6595 137.515 20.6595 137.458 20.714C137.401 20.7685 137.401 20.823 137.401 20.823C137.401 20.8775 137.401 20.8775 137.401 20.8775L137.458 20.932C137.515 20.932 137.515 20.9865 137.571 20.9865C137.628 20.9865 137.685 21.041 137.798 21.0955C137.912 21.15 138.025 21.15 138.082 21.2045C138.195 21.259 138.252 21.3135 138.308 21.368C138.365 21.4225 138.422 21.477 138.479 21.586C138.535 21.6405 138.535 21.7495 138.535 21.8585C138.535 22.022 138.479 22.1309 138.422 22.2399C138.365 22.3489 138.308 22.4579 138.195 22.5124C138.082 22.5669 137.968 22.6759 137.798 22.6759C137.571 22.7304 137.401 22.7849 137.231 22.7849Z" fill="#00ADEE"/>
<path d="M140.18 20.0056H140.973L140.236 22.676H139.442L140.18 20.0056Z" fill="#00ADEE"/>
<path d="M143.185 22.7849C143.015 22.7849 142.845 22.7849 142.675 22.7304C142.505 22.6759 142.391 22.6214 142.221 22.5124C142.108 22.4034 141.994 22.2944 141.938 22.131C141.881 21.9675 141.824 21.804 141.824 21.586C141.824 21.368 141.881 21.15 141.938 20.9865C142.051 20.7685 142.164 20.605 142.278 20.496C142.448 20.3325 142.618 20.2236 142.845 20.1691C143.072 20.0601 143.299 20.0601 143.582 20.0601C143.696 20.0601 143.866 20.0601 143.979 20.1146C144.092 20.1146 144.206 20.1691 144.319 20.2236C144.433 20.278 144.489 20.3325 144.603 20.387C144.66 20.4415 144.716 20.496 144.773 20.5505L144.263 21.041C144.206 20.9865 144.092 20.8775 143.979 20.823C143.866 20.7685 143.752 20.7685 143.582 20.7685C143.469 20.7685 143.299 20.7685 143.185 20.823C143.072 20.8775 142.958 20.932 142.902 21.041C142.845 21.15 142.732 21.2045 142.732 21.3135C142.675 21.4225 142.675 21.5315 142.675 21.6405C142.675 21.7495 142.675 21.804 142.732 21.913C142.788 21.9675 142.788 22.022 142.845 22.0765C142.902 22.131 142.958 22.1854 143.072 22.1854C143.128 22.1854 143.242 22.2399 143.299 22.2399C143.355 22.2399 143.469 22.2399 143.525 22.2399C143.582 22.2399 143.639 22.1854 143.696 22.1854L143.809 21.804H143.299L143.469 21.259H144.773L144.376 22.6214C144.263 22.6759 144.092 22.7849 143.922 22.8394C143.582 22.7304 143.412 22.7849 143.185 22.7849Z" fill="#00ADEE"/>
<path d="M146.247 20.0056H146.984L147.721 21.477L148.118 20.0056H148.912L148.175 22.676H147.438L146.701 21.1501L146.304 22.7305H145.51L146.247 20.0056Z" fill="#00ADEE"/>
<path d="M150.727 22.7849C150.444 22.7849 150.217 22.7304 149.99 22.6759C149.763 22.5669 149.593 22.4579 149.423 22.2944L149.933 21.804C150.217 22.022 150.5 22.1854 150.784 22.1854C150.897 22.1854 150.954 22.1854 151.011 22.131C151.067 22.0765 151.124 22.022 151.124 21.9675V21.913L151.067 21.8585C151.011 21.8585 151.011 21.804 150.954 21.804C150.897 21.804 150.841 21.7495 150.727 21.695C150.614 21.6405 150.5 21.586 150.444 21.586C150.33 21.5315 150.273 21.477 150.217 21.4225C150.16 21.368 150.103 21.3135 150.047 21.2045C149.99 21.15 149.99 21.041 149.99 20.932C149.99 20.823 150.047 20.6595 150.103 20.5505C150.16 20.4415 150.273 20.3325 150.33 20.278C150.444 20.2236 150.557 20.1146 150.727 20.1146C150.897 20.0601 151.011 20.0601 151.181 20.0601C151.408 20.0601 151.634 20.1146 151.861 20.1691C152.031 20.2236 152.201 20.3325 152.372 20.4415L151.918 20.932C151.805 20.823 151.691 20.7685 151.578 20.714C151.464 20.6595 151.351 20.6595 151.181 20.6595C151.067 20.6595 151.011 20.6595 150.954 20.714C150.897 20.7685 150.897 20.823 150.897 20.823C150.897 20.8775 150.897 20.8775 150.897 20.8775L150.954 20.932C151.011 20.932 151.011 20.9865 151.067 20.9865C151.124 20.9865 151.181 21.041 151.294 21.0955C151.408 21.15 151.521 21.15 151.578 21.2045C151.691 21.259 151.748 21.3135 151.805 21.368C151.861 21.4225 151.918 21.477 151.975 21.586C152.031 21.6405 152.031 21.7495 152.031 21.8585C152.031 22.022 151.975 22.1309 151.918 22.2399C151.861 22.3489 151.805 22.4579 151.691 22.5124C151.578 22.5669 151.464 22.6759 151.294 22.6759C151.067 22.7304 150.897 22.7849 150.727 22.7849Z" fill="#00ADEE"/>
</g>
<defs>
<linearGradient id="paint0_linear_1080_1684" x1="4.24586" y1="22.1766" x2="14.1507" y2="11.8701" gradientUnits="userSpaceOnUse">
<stop stop-color="white" stop-opacity="0"/>
<stop offset="0.7975" stop-color="white"/>
</linearGradient>
<clipPath id="clip0_1080_1684">
<rect width="158.382" height="25.3412" fill="white" transform="translate(0 0.931519)"/>
</clipPath>
</defs>
</svg>
